<svg width="1024" height="1094" xmlns="http://www.w3.org/2000/svg" xmlns:xlink="http://www.w3.org/1999/xlink" xml:space="preserve" version="1.1">
 <g>
  <title>Layer 1</title>
  <g id="Layer_1">
   <rect id="svg_1" fill="#1D1F25" height="70" width="1024" class="st0" y="1026" x="1"/>
   <g id="svg_2">
    <g id="svg_3">
     <g id="svg_4">
      <path id="svg_5" fill="#E0ECDE" d="m279.12,1045.44l5.2,0c4.09,0 7.46,1.08 10.11,3.2c2.67,2.14 4,5.19 4,9.15c0,4.08 -1.32,7.2 -3.96,9.36c-2.65,2.17 -6.06,3.24 -10.24,3.24l-5.1,0l0,-24.95l-0.01,0zm3.13,22.12l1.1,0c1.62,0 3.16,-0.16 4.6,-0.48c1.45,-0.33 2.71,-0.86 3.79,-1.62c1.07,-0.78 1.94,-1.77 2.58,-2.99c0.64,-1.22 0.97,-2.74 0.97,-4.55c0,-1.79 -0.32,-3.32 -0.95,-4.59c-0.63,-1.28 -1.51,-2.26 -2.66,-2.97c-1.13,-0.72 -2.38,-1.25 -3.75,-1.58c-1.37,-0.35 -2.9,-0.5 -4.59,-0.5l-1.1,0l0,19.28l0.01,0z" class="st1"/>
      <path id="svg_6" fill="#E0ECDE" d="m303.03,1063.16c0.04,1.38 0.49,2.59 1.33,3.61c0.87,1.02 1.99,1.51 3.36,1.51c1.09,0 1.98,-0.25 2.69,-0.75c0.7,-0.51 1.36,-1.25 1.98,-2.26l2.54,1.43c-0.73,1.32 -1.75,2.35 -3.03,3.12c-1.28,0.74 -2.68,1.11 -4.21,1.11c-2.34,0 -4.2,-0.76 -5.6,-2.31c-1.38,-1.59 -2.07,-3.51 -2.07,-5.83c0,-2.43 0.66,-4.45 1.98,-6.01c1.29,-1.56 3.17,-2.31 5.64,-2.31c2.41,0 4.21,0.75 5.44,2.31c1.24,1.54 1.87,3.52 1.87,5.93l0,0.46l-11.92,0l0,-0.01zm8.9,-2.25c-0.19,-1.2 -0.63,-2.15 -1.39,-2.83c-0.75,-0.7 -1.72,-1.05 -2.92,-1.05c-0.57,0 -1.12,0.08 -1.62,0.27c-0.5,0.2 -0.94,0.48 -1.33,0.82c-0.38,0.36 -0.71,0.77 -0.98,1.25c-0.25,0.49 -0.42,0.99 -0.5,1.55l8.74,0l0,-0.01z" class="st1"/>
      <path id="svg_7" fill="#E0ECDE" d="m323.78,1058.46c-0.45,-0.92 -1.11,-1.37 -2,-1.37c-0.42,0 -0.8,0.15 -1.13,0.45c-0.34,0.3 -0.5,0.67 -0.5,1.08c0,0.4 0.13,0.75 0.38,1.02c0.25,0.28 0.6,0.53 1.05,0.78c0.29,0.13 0.51,0.25 0.67,0.3c0.15,0.09 0.4,0.21 0.77,0.37c0.17,0.07 0.33,0.16 0.46,0.2c0.13,0.04 0.23,0.08 0.3,0.13c1.1,0.51 1.99,1.09 2.64,1.76c0.64,0.65 0.97,1.55 0.97,2.64c0,1.46 -0.54,2.69 -1.6,3.67c-1.04,0.98 -2.31,1.46 -3.77,1.46c-0.61,0 -1.19,-0.08 -1.74,-0.25c-0.55,-0.15 -1.07,-0.39 -1.56,-0.69c-0.48,-0.3 -0.89,-0.66 -1.26,-1.09c-0.37,-0.44 -0.65,-0.92 -0.85,-1.43l2.57,-1.15c0.73,1.32 1.68,1.97 2.84,1.97c0.47,0 0.9,-0.12 1.29,-0.38c0.41,-0.25 0.71,-0.57 0.89,-0.95c0.19,-0.4 0.23,-0.81 0.12,-1.28c-0.11,-0.43 -0.45,-0.87 -1.03,-1.27l-2.95,-1.55c-0.5,-0.26 -0.95,-0.53 -1.33,-0.8c-0.38,-0.27 -0.69,-0.55 -0.93,-0.84c-0.25,-0.3 -0.43,-0.63 -0.56,-0.98c-0.12,-0.38 -0.18,-0.79 -0.18,-1.28c0,-1.26 0.44,-2.32 1.34,-3.19c0.89,-0.88 1.97,-1.31 3.26,-1.31c1.96,0 3.38,0.88 4.27,2.71l-2.43,1.27z" class="st1"/>
      <path id="svg_8" fill="#E0ECDE" d="m334.54,1047.83c0,0.55 -0.2,1.03 -0.6,1.42c-0.4,0.4 -0.89,0.6 -1.46,0.6c-0.58,0 -1.07,-0.19 -1.47,-0.6c-0.4,-0.39 -0.6,-0.87 -0.6,-1.42c0,-0.58 0.2,-1.07 0.6,-1.48c0.4,-0.41 0.89,-0.6 1.47,-0.6c0.57,0 1.06,0.19 1.46,0.6c0.4,0.41 0.6,0.89 0.6,1.48zm-0.56,22.57l-3.01,0l0,-15.49l3.01,0l0,15.49z" class="st1"/>
      <path id="svg_9" fill="#E0ECDE" d="m353.39,1070.12c0,2.9 -0.55,5.17 -1.67,6.79c-1.12,1.58 -3.1,2.37 -5.94,2.37c-2.2,0 -4,-0.63 -5.4,-1.88c-1.38,-1.25 -2.09,-2.96 -2.13,-5.13l2.99,0c0,1.39 0.44,2.46 1.28,3.24c0.87,0.75 2,1.13 3.4,1.13c1.71,0 2.88,-0.49 3.52,-1.5c0.63,-1 0.94,-2.38 0.94,-4.2l0,-2.95l-0.07,0c-0.62,0.95 -1.39,1.67 -2.31,2.18c-0.92,0.52 -1.91,0.77 -2.98,0.77c-2.32,0 -4.15,-0.8 -5.48,-2.41c-1.33,-1.62 -1.98,-3.59 -1.98,-5.96c0,-2.24 0.67,-4.12 2.02,-5.69c1.36,-1.62 3.13,-2.41 5.31,-2.41c2.28,0 4.11,1.04 5.42,3.08l0.07,0l0,-2.63l3,0l0,15.2l0.01,0zm-7.9,-1.84c1.57,0 2.8,-0.54 3.69,-1.61c0.91,-1.11 1.37,-2.45 1.37,-4.01c0,-1.55 -0.46,-2.86 -1.37,-3.95c-0.88,-1.07 -2.12,-1.62 -3.69,-1.62c-1.5,0 -2.7,0.55 -3.61,1.67c-0.89,1.08 -1.34,2.38 -1.34,3.9c0,1.56 0.45,2.88 1.34,3.97c0.92,1.11 2.12,1.65 3.61,1.65z" class="st1"/>
      <path id="svg_10" fill="#E0ECDE" d="m360.29,1056.99l0.07,0c0.43,-0.83 1.09,-1.44 1.93,-1.88c0.85,-0.45 1.77,-0.65 2.77,-0.65c1.02,0 1.88,0.14 2.6,0.45c0.7,0.3 1.28,0.74 1.71,1.32c0.44,0.58 0.75,1.27 0.94,2.1c0.19,0.82 0.28,1.78 0.28,2.82l0,9.24l-3,0l0,-8.87c0,-1.53 -0.23,-2.64 -0.66,-3.34c-0.45,-0.73 -1.37,-1.1 -2.77,-1.1c-0.52,0 -0.95,0.05 -1.3,0.15c-0.36,0.09 -0.67,0.23 -0.94,0.42c-0.27,0.19 -0.49,0.41 -0.67,0.65c-0.17,0.25 -0.35,0.51 -0.5,0.81c-0.07,0.14 -0.13,0.35 -0.19,0.59c-0.05,0.24 -0.1,0.49 -0.14,0.73c-0.05,0.26 -0.09,0.51 -0.1,0.77c-0.02,0.26 -0.03,0.46 -0.03,0.61l0,1.45l0,7.12l-3,0l0,-15.49l3,0l0,2.1z" class="st1"/>
      <path id="svg_11" fill="#E0ECDE" d="m384.14,1041.67l3,0l0,15.82l0.07,0c1.38,-2.03 3.19,-3.03 5.44,-3.03c2.17,0 3.95,0.8 5.31,2.41c1.35,1.56 2.03,3.45 2.03,5.69c0,2.37 -0.67,4.34 -2,5.96c-1.34,1.61 -3.17,2.41 -5.47,2.41c-1.06,0 -2.06,-0.25 -2.99,-0.77c-0.92,-0.51 -1.69,-1.23 -2.31,-2.18l-0.07,0l0,2.42l-3,0l0,-28.73l-0.01,0zm7.77,26.61c1.58,0 2.81,-0.54 3.7,-1.61c0.91,-1.11 1.36,-2.45 1.36,-4.01c0,-1.55 -0.45,-2.86 -1.36,-3.95c-0.89,-1.07 -2.12,-1.62 -3.7,-1.62c-1.49,0 -2.7,0.55 -3.61,1.67c-0.89,1.08 -1.34,2.38 -1.34,3.9c0,1.56 0.45,2.88 1.34,3.97c0.91,1.11 2.12,1.65 3.61,1.65z" class="st1"/>
      <path id="svg_12" fill="#E0ECDE" d="m400.41,1054.91l3.5,0l5.27,9.83l4.91,-9.83l3.37,0l-12.65,24.37l-3.4,0l6.15,-11.53l-7.15,-12.84z" class="st1"/>
      <path id="svg_13" fill="#E0ECDE" d="m432.59,1064.13l-2.87,6.26l-3.37,0l12,-26.01l12.01,26.01l-3.37,0l-2.88,-6.26l-11.52,0zm5.77,-12.93l-4.47,10.11l8.94,0l-4.47,-10.11z" class="st1"/>
      <path id="svg_14" fill="#E0ECDE" d="m455.26,1070.4l-3,0l0,-28.73l3,0l0,28.73z" class="st1"/>
      <path id="svg_15" fill="#E0ECDE" d="m462.66,1070.4l-2.99,0l0,-28.73l2.99,0l0,28.73z" class="st1"/>
      <path id="svg_16" fill="#E0ECDE" d="m474.07,1058.56l0,2.47l-7.29,0l0,-2.47l7.29,0z" class="st1"/>
      <path id="svg_17" fill="#E0ECDE" d="m485.75,1044.68c-0.94,-0.43 -1.61,-0.62 -2,-0.62c-0.64,0 -1.12,0.18 -1.4,0.6c-0.29,0.4 -0.48,0.9 -0.6,1.5c-0.06,0.45 -0.1,0.79 -0.12,1.05c-0.01,0.24 -0.02,0.6 -0.02,1.03l0,6.66l4.14,0l0,2.78l-4.14,0l0,12.71l-2.99,0l0,-12.71l-1.37,0l0,-2.78l1.37,0l0,-7.55c0,-4.06 1.67,-6.09 5.03,-6.09c0.74,0 1.43,0.13 2.11,0.4l0,3.02l-0.01,0z" class="st1"/>
      <path id="svg_18" fill="#E0ECDE" d="m490.39,1057.43l0.09,0c0.39,-0.93 0.94,-1.66 1.68,-2.18c0.74,-0.55 1.6,-0.79 2.59,-0.79c0.83,0 1.65,0.24 2.47,0.75l-1.37,2.72c-0.48,-0.42 -1.1,-0.63 -1.83,-0.63c-1.53,0 -2.56,0.62 -3.07,1.84c-0.22,0.58 -0.38,1.17 -0.46,1.72c-0.07,0.55 -0.11,1.2 -0.11,1.92l0,7.62l-3,0l0,-15.49l3,0l0,2.52l0.01,0z" class="st1"/>
      <path id="svg_19" fill="#E0ECDE" d="m500.69,1063.16c0.05,1.38 0.48,2.59 1.33,3.61c0.88,1.02 1.99,1.51 3.37,1.51c1.09,0 1.99,-0.25 2.69,-0.75c0.7,-0.51 1.36,-1.25 1.98,-2.26l2.53,1.43c-0.73,1.32 -1.73,2.35 -3.02,3.12c-1.27,0.74 -2.68,1.11 -4.22,1.11c-2.32,0 -4.2,-0.76 -5.6,-2.31c-1.37,-1.59 -2.07,-3.51 -2.07,-5.83c0,-2.43 0.65,-4.45 1.98,-6.01c1.28,-1.56 3.16,-2.31 5.62,-2.31c2.42,0 4.23,0.75 5.45,2.31c1.25,1.54 1.86,3.52 1.86,5.93l0,0.46l-11.9,0l0,-0.01zm8.9,-2.25c-0.18,-1.2 -0.64,-2.15 -1.39,-2.83c-0.74,-0.7 -1.72,-1.05 -2.92,-1.05c-0.57,0 -1.12,0.08 -1.61,0.27c-0.5,0.2 -0.95,0.48 -1.34,0.82c-0.39,0.36 -0.71,0.77 -0.97,1.25c-0.24,0.49 -0.43,0.99 -0.52,1.55l8.75,0l0,-0.01z" class="st1"/>
      <path id="svg_20" fill="#E0ECDE" d="m516.96,1063.16c0.05,1.38 0.5,2.59 1.34,3.61c0.86,1.02 1.98,1.51 3.36,1.51c1.1,0 1.99,-0.25 2.69,-0.75c0.7,-0.51 1.37,-1.25 1.98,-2.26l2.53,1.43c-0.73,1.32 -1.73,2.35 -3,3.12c-1.28,0.74 -2.69,1.11 -4.23,1.11c-2.33,0 -4.2,-0.76 -5.6,-2.31c-1.38,-1.59 -2.07,-3.51 -2.07,-5.83c0,-2.43 0.65,-4.45 1.97,-6.01c1.29,-1.56 3.16,-2.31 5.65,-2.31c2.39,0 4.21,0.75 5.42,2.31c1.25,1.54 1.86,3.52 1.86,5.93l0,0.46l-11.9,0l0,-0.01zm8.92,-2.25c-0.18,-1.2 -0.65,-2.15 -1.39,-2.83c-0.75,-0.7 -1.73,-1.05 -2.91,-1.05c-0.59,0 -1.13,0.08 -1.63,0.27c-0.5,0.2 -0.95,0.48 -1.33,0.82c-0.39,0.36 -0.73,0.77 -0.97,1.25c-0.26,0.49 -0.43,0.99 -0.52,1.55l8.75,0l0,-0.01z" class="st1"/>
      <path id="svg_21" fill="#E0ECDE" d="m538.57,1058.56l0,2.47l-7.29,0l0,-2.47l7.29,0z" class="st1"/>
      <path id="svg_22" fill="#E0ECDE" d="m554.15,1067.98l-0.05,0c-0.63,0.95 -1.4,1.67 -2.33,2.18c-0.92,0.52 -1.92,0.77 -2.98,0.77c-2.33,0 -4.14,-0.8 -5.47,-2.41c-1.34,-1.62 -2,-3.59 -2,-5.96c0,-2.24 0.67,-4.12 2.03,-5.69c1.36,-1.62 3.12,-2.41 5.31,-2.41c2.24,0 4.05,1 5.44,3.03l0.05,0l0,-15.82l3,0l0,28.73l-3,0l0,-2.42zm-4.91,0.3c1.59,0 2.83,-0.54 3.71,-1.61c0.9,-1.11 1.37,-2.45 1.37,-4.01c0,-1.55 -0.46,-2.86 -1.37,-3.95c-0.88,-1.07 -2.12,-1.62 -3.71,-1.62c-1.48,0 -2.68,0.55 -3.59,1.67c-0.89,1.08 -1.34,2.38 -1.34,3.9c0,1.56 0.45,2.88 1.34,3.97c0.91,1.11 2.11,1.65 3.59,1.65z" class="st1"/>
      <path id="svg_23" fill="#E0ECDE" d="m562.05,1056.83c1.62,-1.58 3.61,-2.37 5.94,-2.37c2.33,0 4.31,0.79 5.9,2.37c1.63,1.59 2.44,3.55 2.44,5.87s-0.81,4.27 -2.44,5.86c-1.58,1.59 -3.57,2.37 -5.9,2.37c-2.34,0 -4.32,-0.78 -5.94,-2.37c-1.59,-1.59 -2.39,-3.54 -2.39,-5.86s0.8,-4.28 2.39,-5.87zm0.6,5.87c0,1.43 0.53,2.7 1.58,3.81c1.02,1.06 2.28,1.58 3.77,1.58c1.45,0 2.72,-0.53 3.76,-1.58c1.05,-1.1 1.58,-2.37 1.58,-3.81c0,-1.46 -0.52,-2.73 -1.58,-3.81c-1.04,-1.07 -2.31,-1.59 -3.76,-1.59c-1.49,0 -2.75,0.52 -3.77,1.59c-1.05,1.08 -1.58,2.35 -1.58,3.81z" class="st1"/>
      <path id="svg_24" fill="#E0ECDE" d="m584.4,1064.78l4.6,-10.73l4.57,10.73l4.53,-9.86l3.41,0l-7.94,16.02l-4.57,-10.35l-4.6,10.35l-7.93,-16.02l3.4,0l4.53,9.86z" class="st1"/>
      <path id="svg_25" fill="#E0ECDE" d="m606.01,1056.99l0.06,0c0.44,-0.83 1.1,-1.44 1.95,-1.88c0.83,-0.45 1.77,-0.65 2.76,-0.65c1.03,0 1.89,0.14 2.6,0.45c0.71,0.3 1.29,0.74 1.71,1.32c0.46,0.58 0.76,1.27 0.95,2.1c0.19,0.82 0.27,1.78 0.27,2.82l0,9.24l-3,0l0,-8.87c0,-1.53 -0.21,-2.64 -0.66,-3.34c-0.46,-0.73 -1.37,-1.1 -2.78,-1.1c-0.51,0 -0.94,0.05 -1.31,0.15c-0.34,0.09 -0.66,0.23 -0.92,0.42c-0.27,0.19 -0.5,0.41 -0.67,0.65c-0.18,0.25 -0.33,0.51 -0.5,0.81c-0.05,0.14 -0.12,0.35 -0.17,0.59c-0.06,0.24 -0.1,0.49 -0.16,0.73c-0.03,0.26 -0.07,0.51 -0.1,0.77c-0.01,0.26 -0.03,0.46 -0.03,0.61l0,1.45l0,7.12l-3,0l0,-15.49l3,0l0,2.1z" class="st1"/>
      <path id="svg_26" fill="#E0ECDE" d="m623.58,1070.4l-3,0l0,-28.73l3,0l0,28.73z" class="st1"/>
      <path id="svg_27" fill="#E0ECDE" d="m628.85,1056.83c1.63,-1.58 3.61,-2.37 5.94,-2.37c2.32,0 4.3,0.79 5.9,2.37c1.62,1.59 2.43,3.55 2.43,5.87s-0.81,4.27 -2.43,5.86c-1.6,1.59 -3.58,2.37 -5.9,2.37c-2.33,0 -4.31,-0.78 -5.94,-2.37c-1.61,-1.59 -2.4,-3.54 -2.4,-5.86s0.8,-4.28 2.4,-5.87zm0.61,5.87c0,1.43 0.52,2.7 1.57,3.81c1.02,1.06 2.28,1.58 3.77,1.58c1.47,0 2.72,-0.53 3.76,-1.58c1.06,-1.1 1.58,-2.37 1.58,-3.81c0,-1.46 -0.53,-2.73 -1.58,-3.81c-1.04,-1.07 -2.28,-1.59 -3.76,-1.59c-1.5,0 -2.75,0.52 -3.77,1.59c-1.05,1.08 -1.57,2.35 -1.57,3.81z" class="st1"/>
      <path id="svg_28" fill="#E0ECDE" d="m660.5,1070.4l-3,0l0,-2.42l-0.07,0c-1.33,1.98 -3.1,2.95 -5.3,2.95c-2.29,0 -4.11,-0.8 -5.48,-2.41c-1.33,-1.62 -1.98,-3.59 -1.98,-5.96c0,-2.24 0.68,-4.12 2.02,-5.69c1.36,-1.62 3.14,-2.41 5.33,-2.41c2.23,0 4.04,1 5.41,3.03l0.07,0l0,-2.57l3,0l0,15.48zm-7.9,-2.12c1.57,0 2.81,-0.54 3.71,-1.61c0.9,-1.11 1.35,-2.45 1.35,-4.01c0,-1.55 -0.45,-2.86 -1.35,-3.95c-0.9,-1.07 -2.14,-1.62 -3.71,-1.62c-1.49,0 -2.7,0.55 -3.6,1.67c-0.89,1.08 -1.33,2.38 -1.33,3.9c0,1.56 0.44,2.88 1.33,3.97c0.9,1.11 2.11,1.65 3.6,1.65z" class="st1"/>
      <path id="svg_29" fill="#E0ECDE" d="m676.05,1067.98l-0.07,0c-0.62,0.95 -1.4,1.67 -2.32,2.18c-0.91,0.52 -1.91,0.77 -2.98,0.77c-2.32,0 -4.13,-0.8 -5.47,-2.41c-1.34,-1.62 -1.99,-3.59 -1.99,-5.96c0,-2.24 0.67,-4.12 2.04,-5.69c1.35,-1.62 3.11,-2.41 5.29,-2.41c2.25,0 4.06,1 5.44,3.03l0.07,0l0,-15.82l3,0l0,28.73l-3,0l0,-2.42l-0.01,0zm-4.9,0.3c1.58,0 2.81,-0.54 3.7,-1.61c0.92,-1.11 1.36,-2.45 1.36,-4.01c0,-1.55 -0.45,-2.86 -1.36,-3.95c-0.89,-1.07 -2.12,-1.62 -3.7,-1.62c-1.5,0 -2.69,0.55 -3.61,1.67c-0.88,1.08 -1.32,2.38 -1.32,3.9c0,1.56 0.44,2.88 1.32,3.97c0.92,1.11 2.11,1.65 3.61,1.65z" class="st1"/>
      <path id="svg_30" fill="#E0ECDE" d="m687.65,1069.02c0,0.53 -0.18,0.99 -0.56,1.36c-0.38,0.37 -0.84,0.55 -1.38,0.55c-0.52,0 -1,-0.19 -1.37,-0.55c-0.37,-0.37 -0.57,-0.83 -0.57,-1.36c0,-0.51 0.2,-0.96 0.57,-1.35c0.37,-0.37 0.85,-0.56 1.37,-0.56c0.53,0 1,0.19 1.38,0.56c0.38,0.38 0.56,0.84 0.56,1.35z" class="st1"/>
      <path id="svg_31" fill="#E0ECDE" d="m704.05,1059.32c-1.24,-1.39 -2.74,-2.1 -4.47,-2.1c-1.45,0 -2.67,0.56 -3.69,1.64c-1,1.09 -1.5,2.38 -1.5,3.8c0,1.62 0.5,2.91 1.5,3.93c1.04,1.04 2.33,1.57 3.88,1.57c1.61,0 3.04,-0.7 4.28,-2.07l0,3.81c-1.29,0.69 -2.72,1.02 -4.29,1.02c-2.31,0 -4.3,-0.77 -5.94,-2.35c-1.63,-1.55 -2.43,-3.47 -2.43,-5.79c0,-2.38 0.81,-4.36 2.43,-5.96c1.62,-1.58 3.65,-2.37 6.1,-2.37c1.61,0 2.99,0.33 4.14,1.02l0,3.85l-0.01,0z" class="st1"/>
      <path id="svg_32" fill="#E0ECDE" d="m708.3,1056.83c1.62,-1.58 3.6,-2.37 5.94,-2.37c2.34,0 4.31,0.79 5.91,2.37c1.61,1.59 2.42,3.55 2.42,5.87s-0.8,4.27 -2.42,5.86c-1.6,1.59 -3.57,2.37 -5.91,2.37c-2.33,0 -4.31,-0.78 -5.94,-2.37c-1.6,-1.59 -2.41,-3.54 -2.41,-5.86s0.81,-4.28 2.41,-5.87zm0.6,5.87c0,1.43 0.5,2.7 1.56,3.81c1.02,1.06 2.28,1.58 3.77,1.58c1.46,0 2.73,-0.53 3.77,-1.58c1.04,-1.1 1.56,-2.37 1.56,-3.81c0,-1.46 -0.53,-2.73 -1.56,-3.81c-1.04,-1.07 -2.31,-1.59 -3.77,-1.59c-1.5,0 -2.75,0.52 -3.77,1.59c-1.06,1.08 -1.56,2.35 -1.56,3.81z" class="st1"/>
      <path id="svg_33" fill="#E0ECDE" d="m728.21,1056.87l0.08,0c0.43,-0.72 1.02,-1.29 1.78,-1.76c0.74,-0.43 1.53,-0.65 2.35,-0.65c1.95,0 3.45,0.9 4.5,2.73c0.48,-0.83 1.16,-1.5 2.02,-2c0.84,-0.5 1.79,-0.73 2.78,-0.73c3.46,0 5.17,2.22 5.17,6.68l0,9.26l-3,0l0,-8.77c0,-0.39 -0.02,-0.8 -0.05,-1.18c-0.04,-0.38 -0.09,-0.75 -0.19,-1.13c-0.09,-0.35 -0.22,-0.68 -0.41,-1c-0.17,-0.3 -0.42,-0.58 -0.72,-0.83c-0.4,-0.26 -0.91,-0.39 -1.53,-0.39c-0.63,0 -1.16,0.13 -1.59,0.39c-0.43,0.25 -0.76,0.57 -0.99,0.92c-0.25,0.35 -0.43,0.84 -0.56,1.37c-0.12,0.54 -0.21,1.05 -0.25,1.5c-0.02,0.43 -0.05,0.95 -0.05,1.51l0,7.62l-3.01,0l0,-8.2c0,-0.53 0,-0.96 -0.03,-1.31c-0.02,-0.37 -0.09,-0.8 -0.2,-1.35c-0.11,-0.57 -0.25,-0.98 -0.43,-1.25c-0.18,-0.3 -0.45,-0.58 -0.83,-0.83c-0.38,-0.24 -0.84,-0.36 -1.37,-0.36c-1.54,0 -2.52,0.67 -2.96,1.99c-0.21,0.61 -0.34,1.21 -0.41,1.74c-0.06,0.56 -0.09,1.21 -0.09,1.96l0,7.62l-3,0l0,-15.49l3,0l0,1.94l-0.01,0z" class="st1"/>
     </g>
     <g id="svg_34">
      <g id="svg_35">
       <path id="svg_36" fill="#E0ECDE" d="m209.16,1061.27c14.16,0 28.32,0 42.48,0c1.29,0 1.29,-1.99 0,-1.99c-14.16,0 -28.32,0 -42.48,0c-1.28,0.01 -1.28,1.99 0,1.99l0,0z" class="st1"/>
      </g>
      <g id="svg_37">
       <path id="svg_38" fill="#E0ECDE" d="m774.36,1061.27c14.15,0 28.31,0 42.47,0c1.3,0 1.3,-1.99 0,-1.99c-14.15,0 -28.32,0 -42.47,0c-1.28,0.01 -1.28,1.99 0,1.99l0,0z" class="st1"/>
      </g>
     </g>
    </g>
   </g>
   <rect x="4" id="svg_39" fill="#FFFFFF" opacity="0" height="1021" width="1024" class="st2" y="2.5"/>
  </g>
  <g id="svg_40"/>
  <g id="svg_64"/>
  <g id="svg_70">
   <g id="svg_71">
    <rect id="svg_72" fill="#FF5B00" height="256.05" width="99.03" class="st3" y="360.82498" x="330.05998"/>
    <rect id="svg_73" fill="#017083" height="256.05" width="99.03" class="st4" transform="matrix(-1 -4.49300e-11 4.49300e-11 -1 1249.64 928.389)" y="311.51502" x="594.92002"/>
    <rect id="svg_74" fill="#FDA305" height="287.88" width="99.73" class="st5" y="343.13498" x="442.51998"/>
    <g id="svg_75">
     <defs transform="translate(284.32 0) translate(0 24.655) translate(-303.93 0)">
      <rect height="287.88" width="99.73" y="318.48" x="462.13" id="SVGID_1_"/>
     </defs>
     <clipPath transform="translate(284.32 0) translate(0 24.655) translate(-303.93 0)" id="SVGID_2_">
      <use x="-19.61002" y="24.65498" id="svg_76" xlink:href="#SVGID_1_"/>
     </clipPath>
     <g id="svg_77" clip-path="url(#SVGID_2_)" class="st6">
      <g id="svg_78">
       <g id="svg_79">
        <g id="svg_80">
         <polygon id="svg_81" stroke-miterlimit="10" stroke-linejoin="round" stroke-linecap="round" stroke-width="7.2128" stroke="#000000" fill="none" points="384.0299987792969,423.77496337890625 319.8799743652344,487.0249938964844 466.78997802734375,487.0249938964844 530.9399719238281,423.77496337890625 " class="st7"/>
        </g>
        <g id="svg_82">
         <polygon id="svg_83" stroke-miterlimit="10" stroke-linejoin="round" stroke-linecap="round" stroke-width="7.2128" stroke="#000000" fill="none" points="467.03997802734375,496.4049987792969 466.78997802734375,496.64495849609375 319.8799743652344,496.64495849609375 319.8799743652344,582.7849731445312 467.17999267578125,582.7849731445312 467.17999267578125,496.64495849609375 " class="st7"/>
        </g>
        <g id="svg_84">
         <rect id="svg_85" height="10.49" width="10.49" y="448.88498" x="515.03998"/>
        </g>
        <g id="svg_86">
         <rect id="svg_87" height="10.49" width="10.49" y="448.88498" x="527.36998"/>
        </g>
        <g id="svg_88">
         <rect id="svg_89" height="10.49" width="10.49" y="461.13498" x="515.03998"/>
        </g>
        <g id="svg_90">
         <rect id="svg_91" height="10.49" width="10.49" y="461.13498" x="527.36998"/>
        </g>
       </g>
      </g>
      <g id="svg_92">
       <g id="svg_93">
        <rect id="svg_94" height="5.08" width="89.82" y="528.47498" x="349.61998"/>
        <rect id="svg_95" height="4.45" width="79.37" y="533.55498" x="354.83998"/>
        <rect id="svg_96" height="49.23" width="5.31" y="533.55498" x="354.83998"/>
        <rect id="svg_97" height="49.23" width="5.31" y="533.55498" x="428.90998"/>
        <g id="svg_98">
         <rect id="svg_99" height="67.33" width="5.31" y="515.45498" x="341.61998"/>
         <rect id="svg_100" height="33.66" width="5.31" y="549.11498" x="370.94998"/>
         <rect id="svg_101" height="2.94" width="30.03" y="549.11498" x="346.22998"/>
         <rect id="svg_102" height="2.94" width="30.03" y="557.29498" x="346.22998"/>
        </g>
        <g id="svg_103">
         <rect id="svg_104" height="67.33" width="5.31" y="515.45498" x="442.13998"/>
         <rect id="svg_105" height="33.66" width="5.31" y="549.11498" x="412.80998"/>
         <rect id="svg_106" height="2.94" width="30.03" y="549.11498" x="412.80998"/>
         <rect id="svg_107" height="2.94" width="30.03" y="557.29498" x="412.80998"/>
        </g>
       </g>
      </g>
      <rect id="svg_108" height="6.78" width="85.98" y="579.47498" x="467.17998"/>
     </g>
    </g>
    <g id="svg_109">
     <defs transform="translate(284.32 0) translate(0 24.655) translate(-303.93 0)">
      <rect height="256.05" width="99.03" transform="matrix(-1 -4.492996e-11 4.492996e-11 -1 1249.6389 928.389)" y="336.17" x="575.31" id="SVGID_3_"/>
     </defs>
     <clipPath transform="translate(284.32 0) translate(0 24.655) translate(-303.93 0)" id="SVGID_4_">
      <use x="-19.61002" y="24.65498" id="svg_110" xlink:href="#SVGID_3_"/>
     </clipPath>
     <g id="svg_111" clip-path="url(#SVGID_4_)" class="st8">
      <g id="svg_112">
       <g id="svg_113">
        <g id="svg_114">
         <rect id="svg_115" stroke-miterlimit="10" stroke-linejoin="round" stroke-linecap="round" stroke-width="7.2128" stroke="#000000" fill="none" height="149.39" width="104.48" class="st7" y="433.39498" x="553.15998"/>
        </g>
       </g>
      </g>
      <g id="svg_116">
       <path id="svg_117" stroke-miterlimit="10" stroke-width="1.985" stroke="#000000" fill="none" d="m608.33998,514.99498l0,-0.03l-12.45,0c-5.02,-0.07 -19.41,0.63 -26.28,10.33c2.51,0.08 4.73,1.74 5.5,4.21l5.62,18.15l40.52,0l5.62,-18.15c0.77,-2.47 2.99,-4.13 5.5,-4.21c-6.03,-8.5 -17.83,-10.09 -24.03,-10.3z" class="st9"/>
       <path id="svg_118" stroke-miterlimit="10" stroke-width="1.985" stroke="#000000" fill="none" d="m569.09998,565.22498c2.21,1.82 4.97,2.81 7.81,2.81l48.16,0c2.84,0 5.6,-0.99 7.81,-2.81c2.72,-2.24 4.4,-5.52 4.64,-9.06l1.57,-23.28c0.22,-3.33 -2.25,-6.21 -5.53,-6.45c-2.75,-0.19 -5.27,1.55 -6.1,4.22l-5.62,18.15l-41.7,0l-5.62,-18.15c-0.83,-2.67 -3.35,-4.41 -6.1,-4.22c-3.28,0.23 -5.75,3.12 -5.53,6.45l1.57,23.28c0.24,3.55 1.92,6.83 4.64,9.06z" class="st9"/>
       <path id="svg_119" d="m642.50998,530.58498c-0.73,0 -1.33,0.56 -1.38,1.29l-1.68,24.6c-0.36,5.23 -3.54,9.95 -8.53,12.18c-1.85,0.83 -3.87,1.19 -5.9,1.19l-48.07,0c-2.03,0 -4.05,-0.36 -5.9,-1.19c-4.98,-2.23 -8.17,-6.95 -8.53,-12.18l-1.68,-24.6c-0.05,-0.73 -0.65,-1.29 -1.38,-1.29c-0.8,0 -1.43,0.68 -1.38,1.48l1.87,27.33c0.36,5.23 3.54,9.95 8.53,12.18c1.85,0.83 3.87,1.19 5.9,1.19l53.22,0c2.03,0 4.05,-0.36 5.9,-1.19c4.98,-2.23 8.17,-6.95 8.53,-12.18l1.87,-27.33c0.05,-0.81 -0.58,-1.48 -1.39,-1.48z"/>
       <path id="svg_120" d="m578.75998,572.75498l-4.57,0c-0.66,0 -1.31,-0.08 -1.96,-0.17l-2.07,7.67l5.32,0l3.28,-7.5z"/>
       <path id="svg_121" d="m629.74998,572.59498c-0.65,0.09 -1.3,0.17 -1.96,0.17l-4.57,0l3.27,7.5l5.32,0l-2.06,-7.67z"/>
      </g>
      <g id="svg_122">
       <path id="svg_123" d="m739.67998,480.66498l-23.53,0l0,-11.76c0,-6.5 5.27,-11.76 11.76,-11.76l0,0c6.5,0 11.76,5.27 11.76,11.76l0,11.76l0.01,0z"/>
       <path id="svg_124" d="m722.92998,481.40498c-0.01,0.16 -0.05,0.31 -0.05,0.47c0,2.78 2.26,5.04 5.04,5.04c2.78,0 5.04,-2.26 5.04,-5.04c0,-0.16 -0.03,-0.31 -0.05,-0.47l-9.98,0z"/>
       <polygon id="svg_125" points="728.9800109863281,458.9849853515625 726.8599548339844,458.9849853515625 726.8599548339844,435.4649658203125 728.9800109863281,433.3949890136719 "/>
      </g>
      <g id="svg_126">
       <g id="svg_127">
        <g id="svg_128">
         <path id="svg_129" stroke-miterlimit="10" stroke-width="1.298" stroke="#000000" fill="none" d="m612.04998,464.50498c0,-10.07 8.16,-18.23 18.23,-18.23l0,0c10.07,0 18.23,8.16 18.23,18.23l0,109.94" class="st10"/>
         <path id="svg_130" d="m612.04998,463.76498c-6.32,0 -11.44,5.12 -11.44,11.44l22.89,0c-0.01,-6.31 -5.13,-11.44 -11.45,-11.44z"/>
        </g>
        <rect id="svg_131" height="2.64" width="17.84" transform="matrix(-1 -4.53683e-11 4.53683e-11 -1 1336.26 1106.52)" y="527.28502" x="678.82002"/>
        <path id="svg_132" d="m643.43998,574.40498l10.16,0c1.21,0 2.2,0.98 2.2,2.2l0,0l-14.55,0l0,0c0,-1.22 0.98,-2.2 2.19,-2.2z"/>
       </g>
      </g>
     </g>
    </g>
    <g id="svg_133">
     <defs transform="translate(284.32 0) translate(0 24.655) translate(-303.93 0)">
      <rect height="256.05" width="99.03" y="336.17" x="349.67" id="SVGID_5_"/>
     </defs>
     <clipPath transform="translate(284.32 0) translate(0 24.655) translate(-303.93 0)" id="SVGID_6_">
      <use x="-19.61002" y="24.65498" id="svg_134" xlink:href="#SVGID_5_"/>
     </clipPath>
     <g id="svg_135" clip-path="url(#SVGID_6_)" class="st11">
      <g id="svg_136">
       <g id="svg_137">
        <g id="svg_138">
         <polygon id="svg_139" stroke-miterlimit="10" stroke-linejoin="round" stroke-linecap="round" stroke-width="7.2128" stroke="#000000" fill="none" points="384.0299987792969,423.77496337890625 319.8799743652344,487.0249938964844 466.78997802734375,487.0249938964844 530.9399719238281,423.77496337890625 " class="st7"/>
        </g>
        <g id="svg_140">
         <polygon id="svg_141" stroke-miterlimit="10" stroke-linejoin="round" stroke-linecap="round" stroke-width="7.2128" stroke="#000000" fill="none" points="467.03997802734375,496.4049987792969 466.78997802734375,496.64495849609375 319.8799743652344,496.64495849609375 319.8799743652344,582.7849731445312 467.17999267578125,582.7849731445312 467.17999267578125,496.64495849609375 " class="st7"/>
        </g>
       </g>
      </g>
      <path id="svg_142" d="m643.43998,535.24498c-3.18,-1.05 -6.63,0.53 -7.91,3.62l-3.53,8.49l-0.2,-2.02c-0.2,-1.96 0.37,-3.92 1.59,-5.47c1.05,-1.34 1.63,-3 1.63,-4.7l0,-12.47c0,-2.74 -2.22,-4.96 -4.96,-4.96l-24.73,0l-24.73,0c-2.74,0 -4.96,2.22 -4.96,4.96l0,12.47c0,1.71 0.57,3.36 1.63,4.7c1.22,1.55 1.79,3.51 1.59,5.47l-0.2,2.02l-3.53,-8.49c-1.29,-3.09 -4.73,-4.67 -7.91,-3.62c-3.01,0.99 -4.45,3.71 -4.29,6.72c0.61,11.22 3.36,22.04 9.81,31.38c0,0 0.48,0.7 0.48,0.7l4.82,0l-1.21,8.75l1.76,0l3.64,-8.75l23.11,0l23.11,0l3.64,8.75l1.76,0l-1.21,-8.75l4.82,0c0,0 0.48,-0.7 0.48,-0.7c4.12,-5.97 6.83,-12.77 8.34,-19.85c1.09,-5.25 4.22,-15.93 -2.84,-18.25z"/>
      <g id="svg_143">
       <g id="svg_144">
        <rect id="svg_145" height="5.08" width="89.82" y="528.47498" x="349.61998"/>
        <rect id="svg_146" height="4.45" width="79.37" y="533.55498" x="354.83998"/>
        <rect id="svg_147" height="49.23" width="5.31" y="533.55498" x="354.83998"/>
        <rect id="svg_148" height="49.23" width="5.31" y="533.55498" x="428.90998"/>
        <g id="svg_149">
         <rect id="svg_150" height="67.33" width="5.31" y="515.45498" x="341.61998"/>
         <rect id="svg_151" height="33.66" width="5.31" y="549.11498" x="370.94998"/>
         <rect id="svg_152" height="2.94" width="30.03" y="549.11498" x="346.22998"/>
         <rect id="svg_153" height="2.94" width="30.03" y="557.29498" x="346.22998"/>
        </g>
        <g id="svg_154">
         <rect id="svg_155" height="67.33" width="5.31" y="515.45498" x="442.13998"/>
         <rect id="svg_156" height="33.66" width="5.31" y="549.11498" x="412.80998"/>
         <rect id="svg_157" height="2.94" width="30.03" y="549.11498" x="412.80998"/>
         <rect id="svg_158" height="2.94" width="30.03" y="557.29498" x="412.80998"/>
        </g>
       </g>
      </g>
      <rect id="svg_159" height="6.78" width="85.98" y="579.47498" x="467.17998"/>
      <g id="svg_160">
       <path id="svg_161" d="m649.84998,480.66498l-23.53,0l0,-11.76c0,-6.5 5.27,-11.76 11.76,-11.76l0,0c6.5,0 11.76,5.27 11.76,11.76l0,11.76l0.01,0z"/>
       <path id="svg_162" d="m633.09998,481.40498c-0.01,0.16 -0.05,0.31 -0.05,0.47c0,2.78 2.26,5.04 5.04,5.04c2.78,0 5.04,-2.26 5.04,-5.04c0,-0.16 -0.03,-0.31 -0.05,-0.47l-9.98,0z"/>
       <polygon id="svg_163" points="639.1399841308594,458.9849853515625 637.0299987792969,458.9849853515625 637.0299987792969,435.4649658203125 639.1399841308594,433.3949890136719 "/>
      </g>
     </g>
    </g>
   </g>
   <g id="svg_164">
    <rect id="svg_165" height="3.66" width="21.8" y="575.71498" x="499.15998"/>
    <path id="svg_166" stroke-miterlimit="10" stroke-linejoin="round" stroke-linecap="round" stroke-width="1.0895" stroke="#000000" fill="none" d="m509.89998,555.81498c0.09,-10.53 4.16,-21.03 10.73,-29.19c0.03,-0.04 0.07,-0.08 0.1,-0.12" class="st12"/>
    <path id="svg_167" stroke-miterlimit="10" stroke-linejoin="round" stroke-linecap="round" stroke-width="1.0895" stroke="#000000" fill="none" d="m515.44998,534.29498c-0.18,-1.2 -0.39,-2.39 -0.64,-3.57" class="st12"/>
    <path id="svg_168" stroke-miterlimit="10" stroke-linejoin="round" stroke-linecap="round" stroke-width="1.0895" stroke="#000000" fill="none" d="m517.71998,530.98498c1.29,0.15 2.58,0.32 3.86,0.52" class="st12"/>
    <path id="svg_169" stroke-miterlimit="10" stroke-linejoin="round" stroke-linecap="round" stroke-width="1.0895" stroke="#000000" fill="none" d="m512.81998,539.77498c-0.48,-1.41 -1.05,-2.8 -1.71,-4.14" class="st12"/>
    <path id="svg_170" stroke-miterlimit="10" stroke-linejoin="round" stroke-linecap="round" stroke-width="1.0895" stroke="#000000" fill="none" d="m514.19998,537.78498c1.78,-0.17 3.57,-0.19 5.35,-0.06" class="st12"/>
    <path id="svg_171" stroke-miterlimit="10" stroke-linejoin="round" stroke-linecap="round" stroke-width="1.0895" stroke="#000000" fill="none" d="m511.60998,544.03498c2.09,-0.58 4.19,-1.1 6.31,-1.55" class="st12"/>
    <path id="svg_172" stroke-miterlimit="10" stroke-linejoin="round" stroke-linecap="round" stroke-width="1.0895" stroke="#000000" fill="none" d="m512.04998,530.36498c-2.81,3.15 -4.27,7.15 -3.16,11.33c0.63,2.4 2.09,5.31 3.83,7.11c2.03,2.11 4.65,1.79 6.36,-0.5c1.38,-1.85 1.7,-4.05 2.16,-6.26c1.34,-6.49 1.92,-13.09 2.65,-19.66c0.09,-0.76 0.23,-1.87 -0.83,-1.2c-4.02,2.58 -7.84,5.63 -11.01,9.18z" class="st12"/>
    <path id="svg_173" stroke-miterlimit="10" stroke-linejoin="round" stroke-linecap="round" stroke-width="1.0895" stroke="#000000" fill="none" d="m507.17998,556.50498c-0.99,-4.74 -4.64,-8.83 -9.23,-10.37" class="st12"/>
    <path id="svg_174" stroke-miterlimit="10" stroke-linejoin="round" stroke-linecap="round" stroke-width="1.0895" stroke="#000000" fill="none" d="m508.72998,556.52498c0.22,-10.23 -3.81,-20.11 -9.37,-28.53c-0.81,-1.22 -1.63,-2.43 -2.6,-3.54" class="st12"/>
    <path id="svg_175" stroke-miterlimit="10" stroke-linejoin="round" stroke-linecap="round" stroke-width="1.0895" stroke="#000000" fill="none" d="m507.06998,532.42498c-1.82,-6.59 -8.95,-10.61 -15.59,-12.6c1.76,6.58 3.65,13.26 7.11,19.15c0.61,1.03 1.38,2.01 2.43,2.59c2.49,1.36 4.69,-0.65 5.67,-2.85c0.85,-1.95 0.93,-4.27 0.38,-6.29z" class="st12"/>
    <path id="svg_176" stroke-miterlimit="10" stroke-linejoin="round" stroke-linecap="round" stroke-width="1.0895" stroke="#000000" fill="none" d="m503.83998,546.43498c-1.16,-1.83 -3.09,-2 -5.03,-2.55c-1.65,-0.46 -3.33,-0.86 -5,-1.23c1.05,1.81 1.94,3.72 3.07,5.48c0.55,0.86 1.16,1.68 1.82,2.46c0.61,0.71 1.28,1.41 2.13,1.8c3.8,1.72 4.43,-3.72 3.01,-5.96z" class="st12"/>
    <path id="svg_177" stroke-miterlimit="10" stroke-linejoin="round" stroke-linecap="round" stroke-width="1.0895" stroke="#000000" fill="none" d="m501.64998,547.93498c-0.15,-0.71 -0.35,-1.42 -0.59,-2.1" class="st12"/>
    <path id="svg_178" stroke-miterlimit="10" stroke-linejoin="round" stroke-linecap="round" stroke-width="1.0895" stroke="#000000" fill="none" d="m500.55998,547.72498c-0.62,0.32 -1.28,0.56 -1.97,0.71" class="st12"/>
    <path id="svg_179" stroke-miterlimit="10" stroke-linejoin="round" stroke-linecap="round" stroke-width="1.0895" stroke="#000000" fill="none" d="m503.44998,534.72498c0.13,-1.72 0.26,-3.45 0.4,-5.17" class="st12"/>
    <path id="svg_180" stroke-miterlimit="10" stroke-linejoin="round" stroke-linecap="round" stroke-width="1.0895" stroke="#000000" fill="none" d="m500.19998,529.29498c-0.07,-1.21 -0.07,-2.43 0,-3.64" class="st12"/>
    <path id="svg_181" stroke-miterlimit="10" stroke-linejoin="round" stroke-linecap="round" stroke-width="1.0895" stroke="#000000" fill="none" d="m498.41998,526.71498c-1.07,-0.08 -2.15,-0.08 -3.22,0" class="st12"/>
    <path id="svg_182" stroke-miterlimit="10" stroke-linejoin="round" stroke-linecap="round" stroke-width="1.0895" stroke="#000000" fill="none" d="m502.10998,532.49498c-1.51,0.06 -3.03,0.04 -4.54,-0.06" class="st12"/>
    <path id="svg_183" stroke-miterlimit="10" stroke-linejoin="round" stroke-linecap="round" stroke-width="1.0895" stroke="#000000" fill="none" d="m505.10998,538.86498c-1.62,-0.71 -3.24,-1.42 -4.95,-1.89" class="st12"/>
    <polygon id="svg_184" points="517.7499694824219,575.7149658203125 502.3599548339844,575.7149658203125 499.1600036621094,556.3749389648438 520.9499816894531,556.3749389648438 "/>
   </g>
  </g>
  <text xml:space="preserve" text-anchor="start" font-family="'Brygada 1918'" font-size="24" stroke-width="0" id="svg_185" y="673" x="352" fill="#000000">P O N T E S   D E S I G NS</text>
 </g>
</svg>